<mxfile host="65bd71144e">
    <diagram id="dv4itMfAJpsjOPQlTr8e" name="ページ1">
        <mxGraphModel dx="877" dy="797" grid="1" gridSize="10" guides="1" tooltips="1" connect="1" arrows="1" fold="1" page="1" pageScale="1" pageWidth="827" pageHeight="1169" background="#ffffff" math="0" shadow="0">
            <root>
                <mxCell id="0"/>
                <mxCell id="1" parent="0"/>
                <mxCell id="2" value="152" style="shape=cube;whiteSpace=wrap;html=1;boundedLbl=1;backgroundOutline=1;darkOpacity=0.05;darkOpacity2=0.1;" parent="1" vertex="1">
                    <mxGeometry x="160" y="160" width="120" height="80" as="geometry"/>
                </mxCell>
                <mxCell id="3" value="整数型の変数 `a`" style="text;html=1;align=center;verticalAlign=middle;whiteSpace=wrap;rounded=0;" parent="1" vertex="1">
                    <mxGeometry x="160" y="250" width="120" height="20" as="geometry"/>
                </mxCell>
                <mxCell id="4" value="&quot;Hello&quot;" style="shape=cube;whiteSpace=wrap;html=1;boundedLbl=1;backgroundOutline=1;darkOpacity=0.05;darkOpacity2=0.1;" parent="1" vertex="1">
                    <mxGeometry x="320" y="160" width="120" height="80" as="geometry"/>
                </mxCell>
                <mxCell id="5" value="文字列型の変数 `s`" style="text;html=1;align=center;verticalAlign=middle;whiteSpace=wrap;rounded=0;" parent="1" vertex="1">
                    <mxGeometry x="320" y="250" width="120" height="20" as="geometry"/>
                </mxCell>
                <mxCell id="6" value="2.718281828" style="shape=cube;whiteSpace=wrap;html=1;boundedLbl=1;backgroundOutline=1;darkOpacity=0.05;darkOpacity2=0.1;" parent="1" vertex="1">
                    <mxGeometry x="480" y="160" width="120" height="80" as="geometry"/>
                </mxCell>
                <mxCell id="7" value="実数型の変数 `e`" style="text;html=1;align=center;verticalAlign=middle;whiteSpace=wrap;rounded=0;" parent="1" vertex="1">
                    <mxGeometry x="480" y="250" width="120" height="20" as="geometry"/>
                </mxCell>
            </root>
        </mxGraphModel>
    </diagram>
</mxfile>